<svg xmlns="http://www.w3.org/2000/svg" viewBox="0 0 32 32" width="32" height="32">
  <defs>
    <linearGradient id="g" x1="0" y1="0" x2="1" y2="1">
      <stop offset="0" stop-color="#A78BFA"/>
      <stop offset="1" stop-color="#38BDF8"/>
    </linearGradient>
  </defs>
  <rect width="32" height="32" rx="8" fill="#0A0E1A"/>
  <path d="M16 3l4 3.9 5.6-.6-.6 5.6L29 16l-4 3.9.6 5.6-5.6-.6L16 29l-4-4.1-5.6.6.6-5.6L3 16l4-3.1-.6-5.6 5.6.6z" fill="url(#g)" opacity="0.16"/>
  <path d="M11.6 22V10.2h5.1c2.7 0 4.4 1.5 4.4 3.9 0 1.8-1 3.1-2.6 3.6l3 4.3h-2.9l-2.6-4h-1.9V22h-2.5zm2.5-6.1h2.3c1.3 0 2-.6 2-1.7s-.7-1.7-2-1.7h-2.3v3.4z" fill="url(#g)"/>
</svg>
